<svg width="809" height="155" viewBox="0 0 809 155" fill="none" xmlns="http://www.w3.org/2000/svg">
<path d="M255.032 55.024V106H274.112C284.336 106.072 293.912 100.96 293.912 89.224V72.088C293.912 60.208 284.336 55.024 274.112 55.024H255.032ZM267.992 93.904V67.048H274.544C278.864 67.048 280.952 69.136 280.952 72.448V88.36C280.952 91.672 278.936 93.904 274.544 93.904H267.992ZM313.693 55.024H300.805V106H313.693V55.024ZM319.311 97.504C324.063 103.624 330.543 106.72 336.663 106.72C346.023 106.72 356.391 101.32 356.823 91.456C357.399 78.928 348.327 75.76 339.255 74.104C335.295 73.24 332.631 71.8 332.487 69.352C332.703 63.448 341.847 63.232 347.175 68.92L355.599 62.44C350.343 56.032 344.367 54.304 338.175 54.304C328.815 54.304 319.743 59.56 319.743 69.568C319.743 79.288 327.231 84.472 335.439 85.768C339.615 86.344 344.295 88 344.151 90.88C343.791 96.352 332.559 96.064 327.447 89.872L319.311 97.504ZM388.391 90.088C385.583 97.144 374.063 95.416 374.063 89.296V71.728C374.063 65.392 385.439 63.952 388.895 70.288L399.407 66.04C395.303 56.968 387.743 54.304 381.479 54.304C371.255 54.304 361.175 60.208 361.175 71.728V89.296C361.175 100.888 371.255 106.72 381.263 106.72C387.671 106.72 395.375 103.552 399.623 95.272L388.391 90.088ZM403.081 89.224C403.081 100.888 413.665 106.72 424.249 106.72C434.833 106.72 445.345 100.888 445.345 89.224V71.8C445.345 60.136 434.761 54.304 424.177 54.304C413.593 54.304 403.081 60.064 403.081 71.8V89.224ZM415.969 71.8C415.969 68.056 420.001 66.04 424.033 66.04C428.209 66.04 432.457 67.84 432.457 71.8V89.224C432.457 92.896 428.353 94.768 424.249 94.768C420.145 94.768 415.969 92.968 415.969 89.224V71.8ZM479.332 106H495.388L481.492 88.504C487.684 86.56 491.5 81.232 491.5 71.8C491.212 59.848 483.076 55.024 472.564 55.024H452.188V106H465.22V89.8H467.524L479.332 106ZM465.22 78.712V67.048H472.78C480.916 67.048 480.916 78.712 472.78 78.712H465.22ZM498.735 55.024V106H517.815C528.039 106.072 537.615 100.96 537.615 89.224V72.088C537.615 60.208 528.039 55.024 517.815 55.024H498.735ZM511.695 93.904V67.048H518.247C522.567 67.048 524.655 69.136 524.655 72.448V88.36C524.655 91.672 522.639 93.904 518.247 93.904H511.695ZM566.253 79H543.789V91.24H566.253V79ZM573.618 106H586.506V91.096H594.066C606.378 91.096 612.642 82.096 612.642 73.024C612.642 64.024 606.45 55.024 593.994 55.024H573.618V106ZM586.506 79.648V67.048H593.994C601.77 66.976 601.77 79.72 593.994 79.648H586.506ZM618.126 106H651.822V93.256H631.086V55.024H618.126V106ZM681.994 55.024H670.258L652.474 106H666.298L669.466 95.776H683.074L686.386 106H700.21L681.994 55.024ZM672.346 84.328L676.09 69.424H676.45L679.978 84.328H672.346ZM722.587 106V85.912L740.443 55.024H725.323L716.107 73.744L706.891 55.024H691.914L709.699 85.912V106H722.587ZM739.639 97.504C744.391 103.624 750.871 106.72 756.991 106.72C766.351 106.72 776.719 101.32 777.151 91.456C777.727 78.928 768.655 75.76 759.583 74.104C755.623 73.24 752.959 71.8 752.815 69.352C753.031 63.448 762.175 63.232 767.503 68.92L775.927 62.44C770.671 56.032 764.695 54.304 758.503 54.304C749.143 54.304 740.071 59.56 740.071 69.568C740.071 79.288 747.559 84.472 755.767 85.768C759.943 86.344 764.623 88 764.479 90.88C764.119 96.352 752.887 96.064 747.775 89.872L739.639 97.504Z" fill="white"/>
<g filter="url(#filter0_i)">
<path d="M55.5835 154.795C49.7462 154.366 43.0707 153.228 37.5813 151.727C22.8622 147.703 9.19257 139.028 1.36545 128.743L0 126.949L0.19777 120.827C1.16911 90.759 9.48042 57.9228 23.5256 28.6637C27.5833 20.2105 27.97 19.6126 30.4446 17.9656C45.7346 7.78861 63.6428 1.42822 80.4949 0.189391L83.0605 0.00078919L83.8996 1.03773C84.3611 1.60804 84.6913 2.10606 84.6334 2.14445C84.5754 2.18286 82.8409 2.69684 80.7788 3.28665C67.0925 7.20124 52.6802 13.5048 41.8978 20.292C38.056 22.7103 33.4224 26.0422 33.3997 26.4027C33.393 26.5083 36.2558 25.2796 39.7614 23.6722C56.5365 15.9808 73.2651 11.2715 90.377 9.42343C91.9442 9.25418 94.3738 8.99117 95.776 8.83897C105.883 7.74197 122.778 7.71789 132.269 8.78695C151.673 10.9727 168.817 15.8011 186.134 23.9576C189.227 25.4145 191.754 26.5174 191.749 26.4086C191.734 26.0391 186.525 22.3062 182.76 19.9654C173.1 13.9592 161.36 8.68501 148.194 4.43608L143.174 2.8157L144.424 1.40786L145.675 0L148.245 0.191449C163.88 1.3559 181.048 7.12505 194.883 15.8634C200.829 19.6188 200.113 18.854 203.111 24.6557C213.535 44.8286 221.91 70.3583 225.789 93.7827C227.306 102.949 228.172 111.71 228.526 121.49L228.72 126.862L227.901 127.993C224.026 133.34 216.553 139.843 209.65 143.874C198.623 150.312 185.816 153.995 171.512 154.84L168.812 155L166.713 152.537C165.558 151.182 162.758 147.91 160.491 145.265C158.224 142.621 156.469 140.375 156.592 140.275C156.714 140.175 158.502 139.558 160.564 138.905C167.696 136.646 175.642 132.566 181.587 128.109C185.439 125.221 191.957 118.604 191.428 118.119C191.362 118.059 189.824 118.889 188.009 119.963C178.72 125.464 162.773 131.768 150.516 134.785C131.743 139.405 111.941 140.221 92.6265 137.169C75.057 134.393 55.3822 127.709 42.4213 120.113C40.3787 118.916 38.6448 117.995 38.5681 118.068C38.314 118.307 40.2332 120.683 42.6007 123.06C49.5793 130.067 59.9076 136.062 70.5806 139.302C71.4879 139.577 72.2775 139.84 72.3351 139.887C72.3927 139.933 69.6932 143.171 66.3362 147.083C62.9792 150.994 60.0827 154.374 59.8995 154.594C59.5725 154.986 58.7193 155.026 55.5834 154.795L55.5835 154.795Z" fill="white"/>
</g>
<g filter="url(#filter1_d)">
<path d="M183.791 63.0909C177.618 63.0909 172.746 67.9802 172.746 73.9452C172.746 79.9102 177.727 84.7996 183.791 84.7996C189.963 84.7996 194.836 79.9102 194.836 73.9452C194.836 67.9802 189.963 63.0909 183.791 63.0909Z" fill="#CA4139"/>
<path d="M145.372 63.0909C139.2 63.0909 134.328 67.9802 134.328 73.9452C134.328 79.9102 139.309 84.7996 145.372 84.7996C151.544 84.7996 156.416 79.9102 156.416 73.9452C156.525 67.9802 151.544 63.0909 145.372 63.0909Z" fill="#74BE73"/>
<path d="M176.386 92.3583C176.386 86.6497 171.069 82.143 164.582 82.143C158.095 82.143 152.778 86.7499 152.778 92.3583C152.778 98.0669 158.095 102.574 164.582 102.574C171.069 102.574 176.386 98.0668 176.386 92.3583Z" fill="#F0CF22"/>
<path d="M176.386 55.8035C176.386 50.095 171.069 45.5883 164.582 45.5883C158.095 45.5883 152.778 50.1952 152.778 55.8036C152.778 61.5121 158.095 66.0189 164.582 66.0189C171.069 66.119 176.386 61.5121 176.386 55.8035Z" fill="#387EBA"/>
</g>
<g filter="url(#filter2_d)">
<path d="M57.2053 45.5882C55.4594 45.5882 54.0539 46.9119 54.0539 48.5562V61.6153C54.0539 63.0145 52.388 64.5833 50.9024 64.5833H37.036C35.2901 64.5833 33.8845 65.907 33.8845 67.5513V80.6104C33.8845 82.2547 35.2901 83.5784 37.036 83.5784H50.9024C52.388 83.5784 54.0539 85.1473 54.0539 86.5464V99.6055C54.0539 101.25 55.4594 102.574 57.2053 102.574H71.0717C72.8177 102.574 74.2232 101.25 74.2232 99.6055V86.5464C74.2232 85.1473 75.889 83.5784 77.3747 83.5784H91.2411C92.987 83.5784 94.3925 82.2547 94.3925 80.6104V67.5513C94.3925 65.907 92.987 64.5833 91.2411 64.5833H77.3747C75.889 64.5833 74.2232 63.0145 74.2232 61.6153V48.5562C74.2232 46.9119 72.8177 45.5882 71.0717 45.5882H57.2053Z" fill="#7289DA"/>
</g>
<defs>
<filter id="filter0_i" x="0" y="0" width="228.72" height="159" filterUnits="userSpaceOnUse" color-interpolation-filters="sRGB">
<feFlood flood-opacity="0" result="BackgroundImageFix"/>
<feBlend mode="normal" in="SourceGraphic" in2="BackgroundImageFix" result="shape"/>
<feColorMatrix in="SourceAlpha" type="matrix" values="0 0 0 0 0 0 0 0 0 0 0 0 0 0 0 0 0 0 127 0" result="hardAlpha"/>
<feOffset dy="4"/>
<feGaussianBlur stdDeviation="2"/>
<feComposite in2="hardAlpha" operator="arithmetic" k2="-1" k3="1"/>
<feColorMatrix type="matrix" values="0 0 0 0 0 0 0 0 0 0 0 0 0 0 0 0 0 0 0.25 0"/>
<feBlend mode="normal" in2="shape" result="effect1_innerShadow"/>
</filter>
<filter id="filter1_d" x="130.328" y="45.5882" width="68.508" height="64.9854" filterUnits="userSpaceOnUse" color-interpolation-filters="sRGB">
<feFlood flood-opacity="0" result="BackgroundImageFix"/>
<feColorMatrix in="SourceAlpha" type="matrix" values="0 0 0 0 0 0 0 0 0 0 0 0 0 0 0 0 0 0 127 0"/>
<feOffset dy="4"/>
<feGaussianBlur stdDeviation="2"/>
<feColorMatrix type="matrix" values="0 0 0 0 0 0 0 0 0 0 0 0 0 0 0 0 0 0 0.25 0"/>
<feBlend mode="normal" in2="BackgroundImageFix" result="effect1_dropShadow"/>
<feBlend mode="normal" in="SourceGraphic" in2="effect1_dropShadow" result="shape"/>
</filter>
<filter id="filter2_d" x="29.8845" y="45.5882" width="68.508" height="64.9853" filterUnits="userSpaceOnUse" color-interpolation-filters="sRGB">
<feFlood flood-opacity="0" result="BackgroundImageFix"/>
<feColorMatrix in="SourceAlpha" type="matrix" values="0 0 0 0 0 0 0 0 0 0 0 0 0 0 0 0 0 0 127 0"/>
<feOffset dy="4"/>
<feGaussianBlur stdDeviation="2"/>
<feColorMatrix type="matrix" values="0 0 0 0 0 0 0 0 0 0 0 0 0 0 0 0 0 0 0.25 0"/>
<feBlend mode="normal" in2="BackgroundImageFix" result="effect1_dropShadow"/>
<feBlend mode="normal" in="SourceGraphic" in2="effect1_dropShadow" result="shape"/>
</filter>
</defs>
</svg>
